<mxfile host="65bd71144e">
    <diagram id="vMyPugzS9pUkBtJHedSR" name="Page-1">
        <mxGraphModel dx="2789" dy="3200" grid="1" gridSize="10" guides="1" tooltips="1" connect="1" arrows="1" fold="1" page="1" pageScale="1" pageWidth="850" pageHeight="1100" math="0" shadow="0">
            <root>
                <mxCell id="0"/>
                <mxCell id="1" parent="0"/>
                <mxCell id="2" value="menu" style="rounded=0;whiteSpace=wrap;html=1;" vertex="1" parent="1">
                    <mxGeometry x="-1350" y="60" width="120" height="60" as="geometry"/>
                </mxCell>
                <mxCell id="3" value="function&lt;br&gt;(idea/abstract)" style="rounded=0;whiteSpace=wrap;html=1;dashed=1;" vertex="1" parent="1">
                    <mxGeometry x="-940" y="60" width="120" height="60" as="geometry"/>
                </mxCell>
                <mxCell id="4" value="" style="curved=1;endArrow=classic;html=1;shadow=0;dashed=1;entryX=0;entryY=0.5;entryDx=0;entryDy=0;exitX=1;exitY=0.5;exitDx=0;exitDy=0;" edge="1" parent="1" source="2" target="3">
                    <mxGeometry width="50" height="50" relative="1" as="geometry">
                        <mxPoint x="-1060" y="20" as="sourcePoint"/>
                        <mxPoint x="-1240" y="-25" as="targetPoint"/>
                        <Array as="points">
                            <mxPoint x="-1110" y="50"/>
                        </Array>
                    </mxGeometry>
                </mxCell>
                <mxCell id="5" value="behaves like" style="edgeLabel;html=1;align=center;verticalAlign=middle;resizable=0;points=[];" vertex="1" connectable="0" parent="4">
                    <mxGeometry x="0.076" y="-3" relative="1" as="geometry">
                        <mxPoint as="offset"/>
                    </mxGeometry>
                </mxCell>
                <mxCell id="6" value="addTravels" style="rounded=0;whiteSpace=wrap;html=1;" vertex="1" parent="1">
                    <mxGeometry x="-1140" y="240" width="120" height="60" as="geometry"/>
                </mxCell>
                <mxCell id="7" value="addMovies" style="rounded=0;whiteSpace=wrap;html=1;" vertex="1" parent="1">
                    <mxGeometry x="-880" y="240" width="120" height="60" as="geometry"/>
                </mxCell>
                <mxCell id="8" value="listMovies" style="rounded=0;whiteSpace=wrap;html=1;" vertex="1" parent="1">
                    <mxGeometry x="-750" y="240" width="120" height="60" as="geometry"/>
                </mxCell>
                <mxCell id="9" value="listTravels" style="rounded=0;whiteSpace=wrap;html=1;" vertex="1" parent="1">
                    <mxGeometry x="-1010" y="240" width="120" height="60" as="geometry"/>
                </mxCell>
                <mxCell id="10" value="" style="curved=1;endArrow=classic;html=1;shadow=0;dashed=1;entryX=0.052;entryY=1.008;entryDx=0;entryDy=0;exitX=0.5;exitY=0;exitDx=0;exitDy=0;entryPerimeter=0;" edge="1" parent="1" source="6" target="3">
                    <mxGeometry width="50" height="50" relative="1" as="geometry">
                        <mxPoint x="-1085" y="190" as="sourcePoint"/>
                        <mxPoint x="-795" y="190" as="targetPoint"/>
                        <Array as="points">
                            <mxPoint x="-965" y="150"/>
                        </Array>
                    </mxGeometry>
                </mxCell>
                <mxCell id="11" value="behaves like" style="edgeLabel;html=1;align=center;verticalAlign=middle;resizable=0;points=[];" vertex="1" connectable="0" parent="10">
                    <mxGeometry x="0.076" y="-3" relative="1" as="geometry">
                        <mxPoint as="offset"/>
                    </mxGeometry>
                </mxCell>
                <mxCell id="12" value="" style="curved=1;endArrow=classic;html=1;shadow=0;dashed=1;entryX=0.25;entryY=1;entryDx=0;entryDy=0;exitX=0.456;exitY=-0.011;exitDx=0;exitDy=0;exitPerimeter=0;" edge="1" parent="1" source="9" target="3">
                    <mxGeometry width="50" height="50" relative="1" as="geometry">
                        <mxPoint x="-900" y="240" as="sourcePoint"/>
                        <mxPoint x="-783.7600000000001" y="120.48000000000002" as="targetPoint"/>
                        <Array as="points">
                            <mxPoint x="-910" y="180"/>
                        </Array>
                    </mxGeometry>
                </mxCell>
                <mxCell id="13" value="behaves like" style="edgeLabel;html=1;align=center;verticalAlign=middle;resizable=0;points=[];" vertex="1" connectable="0" parent="12">
                    <mxGeometry x="0.076" y="-3" relative="1" as="geometry">
                        <mxPoint as="offset"/>
                    </mxGeometry>
                </mxCell>
                <mxCell id="14" value="" style="curved=1;endArrow=classic;html=1;shadow=0;dashed=1;entryX=0.571;entryY=0.999;entryDx=0;entryDy=0;exitX=0.5;exitY=0;exitDx=0;exitDy=0;entryPerimeter=0;" edge="1" parent="1" source="7" target="3">
                    <mxGeometry width="50" height="50" relative="1" as="geometry">
                        <mxPoint x="-840.28" y="239.34000000000015" as="sourcePoint"/>
                        <mxPoint x="-795" y="120" as="targetPoint"/>
                        <Array as="points">
                            <mxPoint x="-850" y="180"/>
                        </Array>
                    </mxGeometry>
                </mxCell>
                <mxCell id="15" value="behaves like" style="edgeLabel;html=1;align=center;verticalAlign=middle;resizable=0;points=[];" vertex="1" connectable="0" parent="14">
                    <mxGeometry x="0.076" y="-3" relative="1" as="geometry">
                        <mxPoint as="offset"/>
                    </mxGeometry>
                </mxCell>
                <mxCell id="16" value="" style="curved=1;endArrow=classic;html=1;shadow=0;dashed=1;entryX=0.794;entryY=0.989;entryDx=0;entryDy=0;exitX=0.5;exitY=0;exitDx=0;exitDy=0;entryPerimeter=0;" edge="1" parent="1" source="8" target="3">
                    <mxGeometry width="50" height="50" relative="1" as="geometry">
                        <mxPoint x="-704.26" y="230.05999999999995" as="sourcePoint"/>
                        <mxPoint x="-755.74" y="110" as="targetPoint"/>
                        <Array as="points">
                            <mxPoint x="-780" y="190"/>
                        </Array>
                    </mxGeometry>
                </mxCell>
                <mxCell id="17" value="behaves like" style="edgeLabel;html=1;align=center;verticalAlign=middle;resizable=0;points=[];" vertex="1" connectable="0" parent="16">
                    <mxGeometry x="0.076" y="-3" relative="1" as="geometry">
                        <mxPoint as="offset"/>
                    </mxGeometry>
                </mxCell>
                <mxCell id="18" style="edgeStyle=none;html=1;curved=1;exitX=0.878;exitY=1.027;exitDx=0;exitDy=0;exitPerimeter=0;entryX=0.338;entryY=1.026;entryDx=0;entryDy=0;entryPerimeter=0;" edge="1" parent="1" source="2" target="6">
                    <mxGeometry relative="1" as="geometry">
                        <mxPoint x="-1150" y="400" as="targetPoint"/>
                        <Array as="points">
                            <mxPoint x="-1250" y="280"/>
                            <mxPoint x="-1160" y="340"/>
                        </Array>
                        <mxPoint x="-1240" y="210" as="sourcePoint"/>
                    </mxGeometry>
                </mxCell>
                <mxCell id="19" value="executes" style="edgeLabel;html=1;align=center;verticalAlign=middle;resizable=0;points=[];" vertex="1" connectable="0" parent="18">
                    <mxGeometry x="-0.1394" y="-1" relative="1" as="geometry">
                        <mxPoint as="offset"/>
                    </mxGeometry>
                </mxCell>
                <mxCell id="20" style="edgeStyle=none;html=1;curved=1;exitX=0.636;exitY=0.993;exitDx=0;exitDy=0;exitPerimeter=0;entryX=0.5;entryY=1;entryDx=0;entryDy=0;" edge="1" parent="1" source="2" target="9">
                    <mxGeometry relative="1" as="geometry">
                        <mxPoint x="-1194.7199999999998" y="389.93999999999994" as="targetPoint"/>
                        <Array as="points">
                            <mxPoint x="-1300" y="320"/>
                            <mxPoint x="-1150" y="410"/>
                        </Array>
                        <mxPoint x="-1339.9199999999998" y="209.9999999999999" as="sourcePoint"/>
                    </mxGeometry>
                </mxCell>
                <mxCell id="21" value="executes" style="edgeLabel;html=1;align=center;verticalAlign=middle;resizable=0;points=[];" vertex="1" connectable="0" parent="20">
                    <mxGeometry x="-0.1394" y="-1" relative="1" as="geometry">
                        <mxPoint as="offset"/>
                    </mxGeometry>
                </mxCell>
                <mxCell id="22" style="edgeStyle=none;html=1;curved=1;exitX=0.378;exitY=0.993;exitDx=0;exitDy=0;exitPerimeter=0;entryX=0.5;entryY=1;entryDx=0;entryDy=0;" edge="1" parent="1" source="2" target="7">
                    <mxGeometry relative="1" as="geometry">
                        <mxPoint x="-1010" y="370.4200000000001" as="targetPoint"/>
                        <Array as="points">
                            <mxPoint x="-1340" y="420"/>
                            <mxPoint x="-1000" y="460"/>
                        </Array>
                        <mxPoint x="-1333.6799999999998" y="190.00000000000023" as="sourcePoint"/>
                    </mxGeometry>
                </mxCell>
                <mxCell id="23" value="executes" style="edgeLabel;html=1;align=center;verticalAlign=middle;resizable=0;points=[];" vertex="1" connectable="0" parent="22">
                    <mxGeometry x="-0.1394" y="-1" relative="1" as="geometry">
                        <mxPoint as="offset"/>
                    </mxGeometry>
                </mxCell>
                <mxCell id="24" style="edgeStyle=none;html=1;curved=1;exitX=0.153;exitY=1.01;exitDx=0;exitDy=0;exitPerimeter=0;entryX=0.5;entryY=1;entryDx=0;entryDy=0;" edge="1" parent="1" source="2" target="8">
                    <mxGeometry relative="1" as="geometry">
                        <mxPoint x="-800" y="410.4200000000001" as="targetPoint"/>
                        <Array as="points">
                            <mxPoint x="-1370" y="530"/>
                            <mxPoint x="-950" y="490"/>
                        </Array>
                        <mxPoint x="-1284.6399999999999" y="230.00000000000023" as="sourcePoint"/>
                    </mxGeometry>
                </mxCell>
                <mxCell id="25" value="executes" style="edgeLabel;html=1;align=center;verticalAlign=middle;resizable=0;points=[];" vertex="1" connectable="0" parent="24">
                    <mxGeometry x="-0.1394" y="-1" relative="1" as="geometry">
                        <mxPoint as="offset"/>
                    </mxGeometry>
                </mxCell>
                <mxCell id="26" style="edgeStyle=none;html=1;entryX=-0.019;entryY=0.274;entryDx=0;entryDy=0;entryPerimeter=0;curved=1;" edge="1" parent="1" source="30" target="31">
                    <mxGeometry relative="1" as="geometry">
                        <mxPoint x="-785" y="-430" as="targetPoint"/>
                        <Array as="points">
                            <mxPoint x="-855" y="-450"/>
                        </Array>
                    </mxGeometry>
                </mxCell>
                <mxCell id="27" value="executes" style="edgeLabel;html=1;align=center;verticalAlign=middle;resizable=0;points=[];" vertex="1" connectable="0" parent="26">
                    <mxGeometry x="-0.1707" relative="1" as="geometry">
                        <mxPoint as="offset"/>
                    </mxGeometry>
                </mxCell>
                <mxCell id="28" style="edgeStyle=none;html=1;entryX=0;entryY=0.75;entryDx=0;entryDy=0;curved=1;" edge="1" parent="1" source="30" target="32">
                    <mxGeometry relative="1" as="geometry">
                        <mxPoint x="-785" y="-600" as="targetPoint"/>
                        <Array as="points">
                            <mxPoint x="-845" y="-600"/>
                        </Array>
                    </mxGeometry>
                </mxCell>
                <mxCell id="29" value="executes" style="edgeLabel;html=1;align=center;verticalAlign=middle;resizable=0;points=[];" vertex="1" connectable="0" parent="28">
                    <mxGeometry x="-0.1394" y="-1" relative="1" as="geometry">
                        <mxPoint as="offset"/>
                    </mxGeometry>
                </mxCell>
                <mxCell id="30" value="menu" style="rounded=0;whiteSpace=wrap;html=1;" vertex="1" parent="1">
                    <mxGeometry x="-1045" y="-570" width="120" height="60" as="geometry"/>
                </mxCell>
                <mxCell id="31" value="addMovies" style="rounded=0;whiteSpace=wrap;html=1;" vertex="1" parent="1">
                    <mxGeometry x="-775" y="-440" width="120" height="60" as="geometry"/>
                </mxCell>
                <mxCell id="32" value="listMovies" style="rounded=0;whiteSpace=wrap;html=1;" vertex="1" parent="1">
                    <mxGeometry x="-780" y="-640" width="120" height="60" as="geometry"/>
                </mxCell>
                <mxCell id="33" value="" style="curved=1;endArrow=classic;html=1;exitX=0.621;exitY=0.001;exitDx=0;exitDy=0;exitPerimeter=0;shadow=0;dashed=1;entryX=0;entryY=0.25;entryDx=0;entryDy=0;" edge="1" parent="1" source="30" target="32">
                    <mxGeometry width="50" height="50" relative="1" as="geometry">
                        <mxPoint x="-925" y="-610" as="sourcePoint"/>
                        <mxPoint x="-875" y="-660" as="targetPoint"/>
                        <Array as="points">
                            <mxPoint x="-905" y="-620"/>
                        </Array>
                    </mxGeometry>
                </mxCell>
                <mxCell id="34" value="knows about" style="edgeLabel;html=1;align=center;verticalAlign=middle;resizable=0;points=[];" vertex="1" connectable="0" parent="33">
                    <mxGeometry x="0.076" y="-3" relative="1" as="geometry">
                        <mxPoint as="offset"/>
                    </mxGeometry>
                </mxCell>
                <mxCell id="35" value="" style="curved=1;endArrow=classic;html=1;exitX=0.634;exitY=1.014;exitDx=0;exitDy=0;exitPerimeter=0;shadow=0;dashed=1;entryX=-0.019;entryY=0.781;entryDx=0;entryDy=0;entryPerimeter=0;" edge="1" parent="1" source="30" target="31">
                    <mxGeometry width="50" height="50" relative="1" as="geometry">
                        <mxPoint x="-960.48" y="-469.9399999999998" as="sourcePoint"/>
                        <mxPoint x="-755" y="-523.3333333333333" as="targetPoint"/>
                        <Array as="points">
                            <mxPoint x="-935" y="-470"/>
                            <mxPoint x="-905" y="-450"/>
                            <mxPoint x="-875" y="-430"/>
                            <mxPoint x="-835" y="-410"/>
                        </Array>
                    </mxGeometry>
                </mxCell>
                <mxCell id="36" value="knows about" style="edgeLabel;html=1;align=center;verticalAlign=middle;resizable=0;points=[];" vertex="1" connectable="0" parent="35">
                    <mxGeometry x="0.076" y="-3" relative="1" as="geometry">
                        <mxPoint as="offset"/>
                    </mxGeometry>
                </mxCell>
                <mxCell id="37" value="addTravels" style="rounded=0;whiteSpace=wrap;html=1;" vertex="1" parent="1">
                    <mxGeometry x="-1315" y="-460" width="120" height="60" as="geometry"/>
                </mxCell>
                <mxCell id="38" value="listTravels" style="rounded=0;whiteSpace=wrap;html=1;" vertex="1" parent="1">
                    <mxGeometry x="-1315" y="-630" width="120" height="60" as="geometry"/>
                </mxCell>
                <mxCell id="39" value="" style="curved=1;endArrow=classic;html=1;shadow=0;dashed=1;entryX=1;entryY=0.25;entryDx=0;entryDy=0;" edge="1" parent="1" source="30" target="38">
                    <mxGeometry width="50" height="50" relative="1" as="geometry">
                        <mxPoint x="-1065" y="-640.0000000000002" as="sourcePoint"/>
                        <mxPoint x="-859.52" y="-705.06" as="targetPoint"/>
                        <Array as="points">
                            <mxPoint x="-1065" y="-620"/>
                        </Array>
                    </mxGeometry>
                </mxCell>
                <mxCell id="40" value="knows about" style="edgeLabel;html=1;align=center;verticalAlign=middle;resizable=0;points=[];" vertex="1" connectable="0" parent="39">
                    <mxGeometry x="0.076" y="-3" relative="1" as="geometry">
                        <mxPoint as="offset"/>
                    </mxGeometry>
                </mxCell>
                <mxCell id="41" style="edgeStyle=none;html=1;curved=1;entryX=1;entryY=0.75;entryDx=0;entryDy=0;" edge="1" parent="1" source="30" target="38">
                    <mxGeometry relative="1" as="geometry">
                        <mxPoint x="-1205" y="-580" as="targetPoint"/>
                        <Array as="points">
                            <mxPoint x="-1135" y="-580"/>
                        </Array>
                        <mxPoint x="-1045" y="-620.7142857142858" as="sourcePoint"/>
                    </mxGeometry>
                </mxCell>
                <mxCell id="42" value="executes" style="edgeLabel;html=1;align=center;verticalAlign=middle;resizable=0;points=[];" vertex="1" connectable="0" parent="41">
                    <mxGeometry x="-0.1394" y="-1" relative="1" as="geometry">
                        <mxPoint as="offset"/>
                    </mxGeometry>
                </mxCell>
                <mxCell id="43" style="edgeStyle=none;html=1;entryX=1;entryY=0.25;entryDx=0;entryDy=0;curved=1;exitX=0;exitY=0.75;exitDx=0;exitDy=0;" edge="1" parent="1" source="30" target="37">
                    <mxGeometry relative="1" as="geometry">
                        <mxPoint x="-1225" y="-521.78" as="targetPoint"/>
                        <Array as="points">
                            <mxPoint x="-1105" y="-480"/>
                        </Array>
                        <mxPoint x="-1094.0000000000002" y="-440.0000000000001" as="sourcePoint"/>
                    </mxGeometry>
                </mxCell>
                <mxCell id="44" value="executes" style="edgeLabel;html=1;align=center;verticalAlign=middle;resizable=0;points=[];" vertex="1" connectable="0" parent="43">
                    <mxGeometry x="-0.1394" y="-1" relative="1" as="geometry">
                        <mxPoint as="offset"/>
                    </mxGeometry>
                </mxCell>
                <mxCell id="45" value="" style="curved=1;endArrow=classic;html=1;shadow=0;dashed=1;" edge="1" parent="1" source="30">
                    <mxGeometry width="50" height="50" relative="1" as="geometry">
                        <mxPoint x="-1055.0000000000002" y="-380" as="sourcePoint"/>
                        <mxPoint x="-1185" y="-420" as="targetPoint"/>
                        <Array as="points">
                            <mxPoint x="-1075" y="-410"/>
                        </Array>
                    </mxGeometry>
                </mxCell>
                <mxCell id="73" value="knows about" style="edgeLabel;html=1;align=center;verticalAlign=middle;resizable=0;points=[];fontSize=11;" vertex="1" connectable="0" parent="45">
                    <mxGeometry x="-0.083" y="-24" relative="1" as="geometry">
                        <mxPoint as="offset"/>
                    </mxGeometry>
                </mxCell>
                <mxCell id="47" style="edgeStyle=none;html=1;entryX=-0.019;entryY=0.274;entryDx=0;entryDy=0;entryPerimeter=0;curved=1;" edge="1" parent="1" source="51" target="52">
                    <mxGeometry relative="1" as="geometry">
                        <mxPoint x="-950" y="-1320" as="targetPoint"/>
                        <Array as="points">
                            <mxPoint x="-1020" y="-1340"/>
                        </Array>
                    </mxGeometry>
                </mxCell>
                <mxCell id="48" value="executes" style="edgeLabel;html=1;align=center;verticalAlign=middle;resizable=0;points=[];" vertex="1" connectable="0" parent="47">
                    <mxGeometry x="-0.1707" relative="1" as="geometry">
                        <mxPoint as="offset"/>
                    </mxGeometry>
                </mxCell>
                <mxCell id="49" style="edgeStyle=none;html=1;entryX=0;entryY=0.75;entryDx=0;entryDy=0;curved=1;" edge="1" parent="1" source="51" target="53">
                    <mxGeometry relative="1" as="geometry">
                        <mxPoint x="-950" y="-1490" as="targetPoint"/>
                        <Array as="points">
                            <mxPoint x="-1010" y="-1490"/>
                        </Array>
                    </mxGeometry>
                </mxCell>
                <mxCell id="50" value="executes" style="edgeLabel;html=1;align=center;verticalAlign=middle;resizable=0;points=[];" vertex="1" connectable="0" parent="49">
                    <mxGeometry x="-0.1394" y="-1" relative="1" as="geometry">
                        <mxPoint as="offset"/>
                    </mxGeometry>
                </mxCell>
                <mxCell id="51" value="menuMovies" style="rounded=0;whiteSpace=wrap;html=1;" vertex="1" parent="1">
                    <mxGeometry x="-1210" y="-1460" width="120" height="60" as="geometry"/>
                </mxCell>
                <mxCell id="52" value="addMovies" style="rounded=0;whiteSpace=wrap;html=1;" vertex="1" parent="1">
                    <mxGeometry x="-930" y="-1330" width="120" height="60" as="geometry"/>
                </mxCell>
                <mxCell id="53" value="listMovies" style="rounded=0;whiteSpace=wrap;html=1;" vertex="1" parent="1">
                    <mxGeometry x="-930" y="-1540" width="120" height="60" as="geometry"/>
                </mxCell>
                <mxCell id="54" value="" style="curved=1;endArrow=classic;html=1;exitX=0.621;exitY=0.001;exitDx=0;exitDy=0;exitPerimeter=0;shadow=0;dashed=1;entryX=0;entryY=0.25;entryDx=0;entryDy=0;" edge="1" parent="1" source="51" target="53">
                    <mxGeometry width="50" height="50" relative="1" as="geometry">
                        <mxPoint x="-1090" y="-1500" as="sourcePoint"/>
                        <mxPoint x="-1040" y="-1550" as="targetPoint"/>
                        <Array as="points">
                            <mxPoint x="-1070" y="-1510"/>
                        </Array>
                    </mxGeometry>
                </mxCell>
                <mxCell id="55" value="knows about" style="edgeLabel;html=1;align=center;verticalAlign=middle;resizable=0;points=[];" vertex="1" connectable="0" parent="54">
                    <mxGeometry x="0.076" y="-3" relative="1" as="geometry">
                        <mxPoint as="offset"/>
                    </mxGeometry>
                </mxCell>
                <mxCell id="56" value="" style="curved=1;endArrow=classic;html=1;exitX=0.634;exitY=1.014;exitDx=0;exitDy=0;exitPerimeter=0;shadow=0;dashed=1;entryX=-0.019;entryY=0.781;entryDx=0;entryDy=0;entryPerimeter=0;" edge="1" parent="1" source="51" target="52">
                    <mxGeometry width="50" height="50" relative="1" as="geometry">
                        <mxPoint x="-1125.48" y="-1359.9399999999998" as="sourcePoint"/>
                        <mxPoint x="-920" y="-1413.3333333333333" as="targetPoint"/>
                        <Array as="points">
                            <mxPoint x="-1100" y="-1360"/>
                            <mxPoint x="-1070" y="-1340"/>
                            <mxPoint x="-1040" y="-1320"/>
                            <mxPoint x="-1000" y="-1300"/>
                        </Array>
                    </mxGeometry>
                </mxCell>
                <mxCell id="57" value="knows about" style="edgeLabel;html=1;align=center;verticalAlign=middle;resizable=0;points=[];" vertex="1" connectable="0" parent="56">
                    <mxGeometry x="0.076" y="-3" relative="1" as="geometry">
                        <mxPoint as="offset"/>
                    </mxGeometry>
                </mxCell>
                <mxCell id="58" style="edgeStyle=none;html=1;entryX=-0.019;entryY=0.274;entryDx=0;entryDy=0;entryPerimeter=0;curved=1;" edge="1" parent="1" source="62" target="63">
                    <mxGeometry relative="1" as="geometry">
                        <mxPoint x="-950" y="-1000" as="targetPoint"/>
                        <Array as="points">
                            <mxPoint x="-1020" y="-1020"/>
                        </Array>
                    </mxGeometry>
                </mxCell>
                <mxCell id="59" value="executes" style="edgeLabel;html=1;align=center;verticalAlign=middle;resizable=0;points=[];" vertex="1" connectable="0" parent="58">
                    <mxGeometry x="-0.1707" relative="1" as="geometry">
                        <mxPoint as="offset"/>
                    </mxGeometry>
                </mxCell>
                <mxCell id="60" style="edgeStyle=none;html=1;entryX=0;entryY=0.75;entryDx=0;entryDy=0;curved=1;" edge="1" parent="1" source="62" target="64">
                    <mxGeometry relative="1" as="geometry">
                        <mxPoint x="-950" y="-1170" as="targetPoint"/>
                        <Array as="points">
                            <mxPoint x="-1010" y="-1170"/>
                        </Array>
                    </mxGeometry>
                </mxCell>
                <mxCell id="61" value="executes" style="edgeLabel;html=1;align=center;verticalAlign=middle;resizable=0;points=[];" vertex="1" connectable="0" parent="60">
                    <mxGeometry x="-0.1394" y="-1" relative="1" as="geometry">
                        <mxPoint as="offset"/>
                    </mxGeometry>
                </mxCell>
                <mxCell id="62" value="menuTravels" style="rounded=0;whiteSpace=wrap;html=1;" vertex="1" parent="1">
                    <mxGeometry x="-1210" y="-1140" width="120" height="60" as="geometry"/>
                </mxCell>
                <mxCell id="63" value="addTravels" style="rounded=0;whiteSpace=wrap;html=1;" vertex="1" parent="1">
                    <mxGeometry x="-930" y="-1010" width="120" height="60" as="geometry"/>
                </mxCell>
                <mxCell id="64" value="listTravels" style="rounded=0;whiteSpace=wrap;html=1;" vertex="1" parent="1">
                    <mxGeometry x="-930" y="-1220" width="120" height="60" as="geometry"/>
                </mxCell>
                <mxCell id="65" value="" style="curved=1;endArrow=classic;html=1;exitX=0.621;exitY=0.001;exitDx=0;exitDy=0;exitPerimeter=0;shadow=0;dashed=1;entryX=0;entryY=0.25;entryDx=0;entryDy=0;" edge="1" parent="1" source="62" target="64">
                    <mxGeometry width="50" height="50" relative="1" as="geometry">
                        <mxPoint x="-1090" y="-1180" as="sourcePoint"/>
                        <mxPoint x="-1040" y="-1230" as="targetPoint"/>
                        <Array as="points">
                            <mxPoint x="-1070" y="-1190"/>
                        </Array>
                    </mxGeometry>
                </mxCell>
                <mxCell id="66" value="knows about" style="edgeLabel;html=1;align=center;verticalAlign=middle;resizable=0;points=[];" vertex="1" connectable="0" parent="65">
                    <mxGeometry x="0.076" y="-3" relative="1" as="geometry">
                        <mxPoint as="offset"/>
                    </mxGeometry>
                </mxCell>
                <mxCell id="67" value="" style="curved=1;endArrow=classic;html=1;exitX=0.634;exitY=1.014;exitDx=0;exitDy=0;exitPerimeter=0;shadow=0;dashed=1;entryX=-0.019;entryY=0.781;entryDx=0;entryDy=0;entryPerimeter=0;" edge="1" parent="1" source="62" target="63">
                    <mxGeometry width="50" height="50" relative="1" as="geometry">
                        <mxPoint x="-1125.48" y="-1039.9399999999998" as="sourcePoint"/>
                        <mxPoint x="-920" y="-1093.3333333333333" as="targetPoint"/>
                        <Array as="points">
                            <mxPoint x="-1100" y="-1040"/>
                            <mxPoint x="-1070" y="-1020"/>
                            <mxPoint x="-1040" y="-1000"/>
                            <mxPoint x="-1000" y="-980"/>
                        </Array>
                    </mxGeometry>
                </mxCell>
                <mxCell id="68" value="knows about" style="edgeLabel;html=1;align=center;verticalAlign=middle;resizable=0;points=[];" vertex="1" connectable="0" parent="67">
                    <mxGeometry x="0.076" y="-3" relative="1" as="geometry">
                        <mxPoint as="offset"/>
                    </mxGeometry>
                </mxCell>
                <mxCell id="69" value="&lt;font style=&quot;font-size: 30px&quot;&gt;03 diagram&lt;/font&gt;" style="text;html=1;strokeColor=none;fillColor=none;align=center;verticalAlign=middle;whiteSpace=wrap;rounded=0;" vertex="1" parent="1">
                    <mxGeometry x="-1350" y="-70" width="540" height="70" as="geometry"/>
                </mxCell>
                <mxCell id="70" value="&lt;font style=&quot;font-size: 30px&quot;&gt;02 diagram&lt;/font&gt;" style="text;html=1;strokeColor=none;fillColor=none;align=center;verticalAlign=middle;whiteSpace=wrap;rounded=0;" vertex="1" parent="1">
                    <mxGeometry x="-1320" y="-750" width="540" height="70" as="geometry"/>
                </mxCell>
                <mxCell id="71" value="&lt;font style=&quot;font-size: 30px&quot;&gt;01 diagram&lt;/font&gt;" style="text;html=1;strokeColor=none;fillColor=none;align=center;verticalAlign=middle;whiteSpace=wrap;rounded=0;" vertex="1" parent="1">
                    <mxGeometry x="-1230" y="-1650" width="540" height="70" as="geometry"/>
                </mxCell>
            </root>
        </mxGraphModel>
    </diagram>
</mxfile>